<?xml version="1.0" standalone="no"?>
<!DOCTYPE svg PUBLIC "-//W3C//DTD SVG 20010904//EN"
 "http://www.w3.org/TR/2001/REC-SVG-20010904/DTD/svg10.dtd">
<svg version="1.0" xmlns="http://www.w3.org/2000/svg"
 width="260.000000pt" height="260.000000pt" viewBox="0 0 260.000000 260.000000"
 preserveAspectRatio="xMidYMid meet">
<metadata>
Created by potrace 1.11, written by Peter Selinger 2001-2013
</metadata>
<g transform="translate(0.000000,260.000000) scale(0.100000,-0.100000)"
fill="#000000" stroke="none">
<path d="M2 2382 l3 -217 48 -3 c41 -3 60 3 135 44 48 26 98 54 112 62 14 9
21 11 15 5 -5 -7 -44 -30 -85 -54 -41 -23 -79 -48 -83 -55 -5 -9 -26 -14 -55
-14 l-47 0 45 -38 c62 -51 235 -224 185 -185 -22 17 -67 59 -100 93 -59 60
-123 110 -157 123 -16 6 -17 -8 -18 -183 l0 -190 53 -30 c28 -16 45 -30 36
-30 -8 0 -30 11 -49 25 -18 14 -36 22 -39 19 -3 -3 1 -9 9 -14 10 -7 11 -10 3
-10 -19 0 -16 -18 5 -23 16 -4 16 -5 0 -6 -15 -1 -18 -11 -18 -61 0 -33 4 -60
8 -60 5 0 17 -7 28 -15 18 -14 17 -14 -8 -5 l-28 10 0 -51 c0 -49 1 -51 22
-45 13 4 40 10 61 13 48 7 54 19 28 47 -36 38 -10 39 29 1 31 -30 46 -37 94
-42 31 -3 56 -2 56 2 0 17 -81 114 -100 120 -31 10 -24 22 14 23 23 1 49 -9
81 -30 l47 -31 19 24 c10 13 19 27 19 30 0 4 -22 27 -50 53 -27 25 -43 46 -36
46 8 0 21 -10 29 -22 13 -19 16 -20 16 -6 1 9 -3 28 -9 42 -11 31 -2 66 11 44
5 -7 9 -26 9 -43 0 -16 4 -37 9 -44 8 -12 11 -8 16 15 11 47 26 82 42 96 9 7
7 -1 -5 -23 -20 -34 -25 -58 -23 -113 1 -29 3 -28 73 45 48 50 77 90 89 123
55 146 179 275 342 355 86 42 106 56 120 86 9 19 39 51 67 71 27 20 47 40 44
45 -3 5 -26 9 -52 9 -81 0 -122 11 -122 31 0 10 5 21 12 25 8 5 9 2 5 -10 -5
-12 1 -19 19 -26 14 -6 31 -10 38 -10 13 0 27 63 28 120 l0 25 17 -22 c16 -19
80 -53 101 -53 4 0 13 14 21 31 11 28 11 33 -7 46 -18 15 -18 15 2 9 15 -5 24
-2 28 9 5 13 -8 15 -84 15 -74 0 -91 -3 -100 -17 -11 -17 -11 -17 -6 0 5 15
-2 17 -62 17 l-67 -1 -25 -52 c-14 -28 -26 -55 -28 -59 -2 -5 16 -9 40 -10 28
-1 17 -4 -32 -7 l-75 -6 40 -22 c50 -28 44 -28 -24 -3 -47 17 -57 18 -86 6
-18 -8 -36 -19 -39 -25 -12 -19 -26 -2 -26 31 l0 30 -47 -27 c-27 -15 -64 -39
-83 -53 -19 -15 -29 -19 -22 -10 8 9 37 32 65 50 48 31 49 33 26 39 -19 6 -15
7 19 8 39 1 42 3 42 28 0 14 3 23 7 19 4 -4 6 -23 5 -43 -2 -20 2 -39 9 -43
13 -9 69 10 69 23 0 4 4 5 10 2 5 -3 26 -3 46 1 36 7 73 49 89 102 6 22 6 22
-100 22 -100 0 -106 -1 -116 -22 l-10 -23 5 23 4 23 -164 -2 c-160 -1 -170 -3
-165 -31 0 -5 -4 -8 -10 -8 -6 0 -8 9 -4 20 6 17 2 20 -29 20 -30 0 -35 -4
-41 -30 -4 -16 -11 -30 -16 -30 -6 0 -6 8 1 19 20 38 13 41 -105 40 l-115 0 2
-217z m146 173 c-6 -14 -16 -25 -21 -25 -5 0 -3 7 4 16 12 15 11 16 -9 10 -29
-10 -29 2 1 14 34 14 37 12 25 -15z m-68 5 c0 -5 -5 -10 -11 -10 -5 0 -7 5 -4
10 3 6 8 10 11 10 2 0 4 -4 4 -10z m645 -9 c-3 -6 -11 -8 -17 -5 -6 4 -5 9 3
15 16 10 23 4 14 -10z m31 -28 c-8 -15 -15 -25 -16 -21 0 12 23 58 27 54 3 -2
-2 -17 -11 -33z m-696 8 c0 -5 -7 -11 -15 -15 -15 -5 -20 5 -8 17 9 10 23 9
23 -2z m439 -50 c10 -7 10 -10 1 -16 -7 -4 -15 -3 -19 3 -3 5 -15 12 -26 15
-17 4 -16 5 5 6 14 0 31 -3 39 -8z m-82 -7 c-3 -3 -12 -4 -19 -1 -8 3 -5 6 6
6 11 1 17 -2 13 -5z m-257 -79 c-14 -7 -27 -11 -30 -9 -6 7 22 24 40 23 9 0 5
-6 -10 -14z m540 11 c0 -2 -8 -10 -17 -17 -16 -13 -17 -12 -4 4 13 16 21 21
21 13z m-625 -66 c-3 -5 -16 -15 -28 -21 -19 -9 -19 -8 3 10 28 23 34 26 25
11z m542 -152 c-22 -16 -25 -23 -15 -29 9 -6 2 -9 -19 -9 -45 0 -41 12 10 37
53 28 59 28 24 1z m-567 8 c0 -2 -8 -10 -17 -17 -16 -13 -17 -12 -4 4 13 16
21 21 21 13z m266 -45 l-29 -6 39 -27 c22 -15 60 -49 84 -75 49 -51 35 -43
-47 29 -29 25 -72 55 -95 66 l-43 21 60 -1 c42 0 51 -2 31 -7z m202 -27 l27
-26 -29 18 c-17 10 -53 22 -80 25 l-51 6 53 2 c44 1 57 -3 80 -25z m-18 -208
c-6 -19 -18 -40 -27 -48 -14 -11 -14 -9 1 14 9 14 19 39 20 55 7 52 9 58 13
35 2 -12 -1 -38 -7 -56z m-354 -67 c34 -24 70 -50 80 -57 11 -7 1 -3 -21 7
-51 26 -187 131 -193 151 -2 8 13 -1 34 -21 22 -19 67 -55 100 -80z m284 17
c0 -2 -8 -10 -17 -17 -16 -13 -17 -12 -4 4 13 16 21 21 21 13z m-259 -173 c13
-15 10 -16 -35 -10 -27 4 -61 8 -75 9 -16 0 -8 4 19 8 72 11 77 11 91 -7z"/>
<path d="M1216 2575 c-4 -15 1 -41 14 -68 17 -37 25 -43 44 -40 25 5 36 35 36
99 0 33 -1 34 -44 34 -38 0 -45 -3 -50 -25z"/>
<path d="M1320 2563 c0 -21 -3 -48 -6 -60 -6 -21 -3 -22 38 -21 25 0 54 -3 66
-6 27 -9 28 1 7 72 l-16 52 -44 0 -45 0 0 -37z"/>
<path d="M1453 2589 c9 -5 17 -15 17 -21 0 -9 -3 -9 -12 0 -22 22 -25 13 -13
-43 10 -52 14 -57 57 -80 26 -14 49 -25 52 -25 16 0 -11 70 -37 98 -17 17 -27
32 -22 32 4 0 28 -21 51 -47 37 -40 51 -48 91 -54 l48 -6 -45 -2 -44 -1 39
-40 c21 -22 46 -40 55 -40 12 0 13 -2 1 -9 -11 -7 -6 -18 24 -55 20 -25 52
-55 71 -67 19 -11 34 -24 34 -29 0 -15 -20 -22 -20 -8 -1 7 -24 33 -52 57
l-50 45 26 -52 c20 -39 34 -54 61 -63 19 -7 35 -16 35 -19 0 -3 27 -25 60 -49
63 -46 158 -155 178 -206 7 -17 29 -39 50 -50 36 -20 40 -20 99 -5 34 9 65 19
69 22 3 4 -19 21 -50 38 -31 18 -56 34 -56 36 0 2 15 3 33 3 18 -1 24 -3 13
-6 -14 -4 -5 -13 38 -39 32 -19 65 -34 74 -34 61 -1 137 -71 142 -130 4 -47 2
-49 -42 -33 -62 22 -172 12 -244 -21 -32 -15 -55 -29 -51 -32 3 -3 19 2 37 11
30 15 33 15 45 -1 11 -16 15 -16 29 -5 9 8 15 19 12 26 -2 6 1 12 7 12 7 0 18
2 26 4 7 2 16 -2 18 -8 3 -8 -4 -13 -15 -13 -12 0 -30 -12 -42 -27 -12 -15
-47 -44 -78 -65 -54 -36 -57 -37 -64 -17 -7 18 -9 19 -31 4 -32 -20 -69 -63
-87 -100 -14 -27 -20 -30 -69 -33 -40 -2 -52 0 -49 10 3 7 19 14 36 16 18 2
32 7 32 13 0 5 9 9 19 9 18 0 71 52 71 70 0 15 -24 24 -28 12 -2 -7 -16 -12
-32 -12 -17 0 -33 -8 -42 -22 l-15 -22 -33 28 c-23 19 -40 26 -56 22 -13 -3
-25 -2 -29 3 -3 6 -18 3 -34 -7 -16 -9 -27 -20 -25 -24 3 -5 -1 -8 -8 -8 -18
0 -81 -118 -74 -137 8 -21 -31 -61 -82 -84 -53 -23 -83 -24 -128 -3 -21 10
-47 14 -67 11 -20 -3 -40 0 -52 9 -27 20 -32 18 -50 -16 -20 -38 -36 -39 -29
-2 4 21 0 36 -18 55 -21 25 -26 26 -60 16 -44 -14 -80 -77 -58 -104 20 -25
-26 -19 -51 6 -18 18 -21 29 -16 69 5 44 4 50 -21 66 -25 16 -26 16 -40 -4 -8
-12 -18 -22 -23 -22 -8 0 -49 81 -49 98 0 11 51 58 71 65 17 6 30 62 25 107
-2 14 -4 31 -5 37 -1 14 -52 43 -75 43 -10 0 -13 -6 -10 -15 4 -8 2 -15 -4
-15 -6 0 -15 -14 -21 -31 -9 -27 -14 -30 -40 -24 -34 7 -101 -3 -101 -16 0 -5
8 -9 18 -9 14 0 15 -2 2 -10 -23 -15 -30 -12 -30 15 0 25 -11 30 -55 26 -15
-1 -17 1 -7 11 14 14 17 108 3 108 -6 0 -7 -15 -4 -33 6 -37 -14 -61 -44 -55
-22 4 -30 47 -11 59 11 7 10 11 -1 18 -26 16 6 40 57 43 l47 3 11 53 c16 71
67 152 131 208 45 38 106 124 88 124 -3 0 -29 -12 -58 -26 -187 -94 -326 -297
-327 -477 0 -64 -2 -71 -30 -97 -22 -21 -30 -37 -30 -63 0 -43 18 -57 38 -31
13 17 14 16 8 -16 -6 -39 -2 -49 34 -73 29 -20 78 -22 105 -3 11 7 32 15 47
18 25 5 28 2 33 -31 4 -20 8 -45 10 -55 2 -11 0 -25 -6 -32 -13 -15 45 -51
170 -104 167 -72 352 -98 520 -73 58 8 113 16 121 17 8 1 58 23 111 48 106 50
180 102 248 172 24 25 50 46 58 46 8 0 25 12 39 28 19 21 23 23 17 7 -4 -13 3
-9 21 12 l27 33 38 -20 c34 -17 40 -17 59 -4 21 15 39 4 27 -17 -4 -6 2 -5 13
2 11 7 18 18 16 24 -3 7 9 11 32 12 34 1 37 -1 61 -55 14 -32 27 -59 29 -61 3
-3 52 42 109 99 95 95 105 108 105 141 0 34 -2 37 -36 43 -20 4 -49 4 -66 1
-23 -6 -29 -4 -26 6 6 15 11 15 82 5 30 -5 46 -4 46 3 0 6 -37 59 -81 119 -45
59 -72 98 -60 87 12 -10 45 -51 73 -90 29 -38 55 -74 59 -79 5 -5 8 111 9 258
l0 267 -40 79 c-22 44 -38 80 -35 80 2 0 20 -30 39 -67 l35 -68 1 82 c0 56 -4
83 -12 86 -10 4 -10 6 0 6 8 1 12 24 12 81 l0 80 -230 -1 -231 -1 6 -21 c5
-21 5 -21 -6 1 -10 18 -21 22 -55 22 l-43 0 -4 -82 -3 -83 -2 83 -2 82 -56 0
c-53 0 -55 -1 -48 -22 15 -50 39 -86 93 -137 l56 -54 -46 31 c-51 35 -95 93
-110 146 -10 35 -12 36 -55 36 -49 0 -49 -4 -10 -49 l21 -24 -27 19 c-15 10
-30 27 -33 37 -6 15 -24 17 -193 17 -132 -1 -182 -4 -169 -11z m834 -5 c-3 -3
-12 -4 -19 -1 -8 3 -5 6 6 6 11 1 17 -2 13 -5z m-70 -10 c-3 -3 -12 -4 -19 -1
-8 3 -5 6 6 6 11 1 17 -2 13 -5z m-612 -34 c13 -5 14 -9 5 -9 -8 0 -24 4 -35
9 -13 5 -14 9 -5 9 8 0 24 -4 35 -9z m700 -26 c23 -36 15 -37 -13 -3 -13 16
-19 29 -14 29 5 0 17 -12 27 -26z m-528 10 c-3 -3 -12 -4 -19 -1 -8 3 -5 6 6
6 11 1 17 -2 13 -5z m756 -1 c-7 -2 -19 -2 -25 0 -7 3 -2 5 12 5 14 0 19 -2
13 -5z m-676 -9 c-3 -3 -12 -4 -19 -1 -8 3 -5 6 6 6 11 1 17 -2 13 -5z m54
-21 l24 -26 -32 23 c-34 25 -39 30 -25 30 5 0 19 -12 33 -27z m486 11 c-3 -3
-12 -4 -19 -1 -8 3 -5 6 6 6 11 1 17 -2 13 -5z m-209 -108 c4 -47 4 -86 0 -86
-4 0 -8 24 -8 53 0 28 -3 70 -7 92 -3 22 -3 37 1 34 4 -4 10 -45 14 -93z m306
58 c5 -14 4 -15 -9 -4 -17 14 -19 20 -6 20 5 0 12 -7 15 -16z m-543 -11 c13
-16 12 -17 -3 -4 -10 7 -18 15 -18 17 0 8 8 3 21 -13z m-218 -10 c-7 -2 -19
-2 -25 0 -7 3 -2 5 12 5 14 0 19 -2 13 -5z m74 -9 c-3 -3 -12 -4 -19 -1 -8 3
-5 6 6 6 11 1 17 -2 13 -5z m179 -36 c14 -28 15 -31 2 -20 -14 11 -31 52 -22
52 2 0 11 -15 20 -32z m382 -19 c-3 -8 -7 -3 -11 10 -4 17 -3 21 5 13 5 -5 8
-16 6 -23z m9 -41 c-3 -8 -6 -5 -6 6 -1 11 2 17 5 13 3 -3 4 -12 1 -19z m27
-68 c5 -17 4 -20 -2 -10 -5 8 -13 26 -16 40 -5 17 -4 20 2 10 5 -8 13 -26 16
-40z m-326 -38 c31 -46 42 -80 22 -67 -5 3 -10 14 -10 23 0 10 -14 34 -31 55
-17 20 -27 37 -22 37 4 0 23 -21 41 -48z m342 -2 c0 -5 -5 -10 -11 -10 -5 0
-7 5 -4 10 3 6 8 10 11 10 2 0 4 -4 4 -10z m-523 -26 c-3 -3 -12 -4 -19 -1 -8
3 -5 6 6 6 11 1 17 -2 13 -5z m156 -21 c-7 -2 -19 -2 -25 0 -7 3 -2 5 12 5 14
0 19 -2 13 -5z m-94 -59 l36 -13 -31 1 c-20 1 -46 15 -70 36 -36 32 -37 33 -5
11 18 -12 50 -28 70 -35z m161 -31 c0 -31 -2 -34 -12 -21 -12 14 -48 30 -93
42 -11 3 6 3 38 0 37 -4 57 -2 57 5 0 6 2 11 5 11 3 0 5 -17 5 -37z m-165 -3
c3 -5 1 -10 -4 -10 -6 0 -11 5 -11 10 0 6 2 10 4 10 3 0 8 -4 11 -10z m169
-65 c6 -17 4 -18 -18 -9 -20 8 -21 24 -2 24 8 0 16 -7 20 -15z m189 -72 c-7
-2 -21 -2 -30 0 -10 3 -4 5 12 5 17 0 24 -2 18 -5z m107 -18 c0 -12 -5 -13
-17 -7 -10 5 -25 12 -33 15 -8 3 0 6 18 6 22 1 32 -4 32 -14z m43 -2 c-7 -2
-19 -2 -25 0 -7 3 -2 5 12 5 14 0 19 -2 13 -5z m54 -9 c-3 -3 -12 -4 -19 -1
-8 3 -5 6 6 6 11 1 17 -2 13 -5z m60 -10 c-3 -3 -12 -4 -19 -1 -8 3 -5 6 6 6
11 1 17 -2 13 -5z m-1922 -263 c-3 -5 -1 -12 4 -16 13 -8 2 -35 -14 -35 -7 0
-15 -3 -17 -7 -1 -5 -18 -18 -35 -31 l-33 -23 0 35 c0 26 7 38 28 52 45 31 79
43 67 25z m1745 -49 c0 -11 -36 -49 -66 -68 -30 -20 -94 -27 -94 -11 0 8 -3 7
-9 -1 -6 -10 -10 -9 -14 7 -3 12 -1 24 4 27 5 3 9 0 9 -7 0 -8 5 -7 17 2 11
10 14 10 9 2 -4 -8 -2 -13 8 -13 8 0 18 5 21 10 4 6 16 8 28 5 17 -5 19 -4 7
4 -13 10 -13 11 0 12 8 1 18 1 21 1 4 -1 15 7 25 18 20 20 34 25 34 12z
m-1580 -22 c0 -5 -4 -10 -10 -10 -5 0 -10 5 -10 10 0 6 5 10 10 10 6 0 10 -4
10 -10z m-61 -26 c4 -4 -61 -64 -70 -64 -14 0 -15 36 -1 57 11 18 20 21 41 17
14 -4 28 -8 30 -10z m-109 -14 c0 -6 -11 -15 -24 -20 -13 -5 -29 -17 -35 -27
-10 -16 -11 -15 -9 7 2 14 8 25 15 25 7 0 18 6 25 13 15 15 28 16 28 2z m1540
-30 c9 -17 8 -20 -7 -20 -10 0 -25 5 -33 11 -13 9 -12 10 2 5 12 -3 15 -1 11
10 -8 22 15 17 27 -6z m-1482 -48 c2 -7 -3 -12 -12 -12 -9 0 -16 7 -16 16 0
17 22 14 28 -4z"/>
<path d="M1186 2502 c-9 -18 -21 -43 -26 -58 l-10 -25 29 20 c16 12 34 21 40
21 15 0 13 19 -3 49 l-14 25 -16 -32z"/>
<path d="M1046 2479 c-11 -58 -10 -60 43 -58 41 2 51 6 60 26 15 32 16 30 -25
43 -44 15 -52 8 -30 -24 9 -14 16 -29 16 -33 -1 -14 -40 38 -40 53 0 27 -18
22 -24 -7z"/>
<path d="M1360 2442 c0 -12 19 -26 26 -19 2 2 -2 10 -11 17 -9 8 -15 8 -15 2z"/>
<path d="M1572 2429 c2 -13 16 -26 38 -35 l35 -15 -34 35 c-41 42 -43 43 -39
15z"/>
<path d="M1270 2425 c-14 -8 -20 -14 -15 -14 6 0 21 6 35 14 14 8 21 14 15 14
-5 0 -21 -6 -35 -14z"/>
<path d="M1590 2223 c0 -22 43 -63 65 -63 35 0 39 16 7 29 -15 6 -37 18 -49
27 -13 9 -23 12 -23 7z"/>
<path d="M1107 2161 c-9 -21 -27 -48 -41 -59 -32 -25 -33 -36 -3 -27 34 11 68
52 74 90 8 47 -11 45 -30 -4z"/>
<path d="M1776 2123 c9 -21 21 -58 27 -82 10 -38 9 -45 -7 -56 -12 -10 -16
-20 -11 -36 10 -30 96 -119 116 -119 16 0 43 23 35 31 -6 6 46 9 62 4 10 -4 9
-10 -4 -30 -9 -14 -14 -28 -10 -32 3 -3 6 -1 6 5 0 8 11 10 31 7 28 -5 30 -4
23 17 -14 47 -63 136 -102 184 -34 43 -158 144 -176 144 -4 0 1 -17 10 -37z
m129 -133 c-3 -5 4 -15 15 -23 11 -7 17 -17 13 -20 -3 -4 0 -7 7 -7 7 0 11 -2
8 -5 -9 -10 -37 6 -53 31 -16 25 -12 50 6 38 5 -3 7 -9 4 -14z"/>
<path d="M1635 2080 c-17 -19 -17 -21 0 -40 16 -18 21 -19 33 -6 9 9 12 23 8
40 -8 31 -17 33 -41 6z"/>
<path d="M886 2063 c-6 -14 -5 -15 5 -6 7 7 10 15 7 18 -3 3 -9 -2 -12 -12z"/>
<path d="M1100 2005 c-24 -25 -21 -55 4 -55 13 0 46 46 46 63 0 17 -32 11 -50
-8z"/>
<path d="M1365 2020 c4 -6 -7 -8 -27 -4 -31 5 -32 4 -14 -10 10 -8 24 -17 30
-19 8 -3 7 -17 -4 -48 -18 -52 -47 -62 -91 -30 -35 26 -43 26 -30 2 10 -18 68
-51 90 -51 7 0 23 11 37 25 20 21 29 23 45 15 11 -6 38 -12 61 -13 31 -1 44 4
59 22 20 24 26 67 9 56 -5 -3 -10 -12 -10 -19 0 -26 -26 -37 -66 -28 -54 11
-55 35 -4 67 22 14 38 30 35 35 -3 6 -33 10 -66 10 -37 0 -58 -4 -54 -10z"/>
<path d="M872 1966 c-14 -30 -9 -47 9 -29 6 6 9 21 7 34 -3 23 -3 23 -16 -5z"/>
<path d="M855 1890 c-3 -5 -4 -10 -1 -10 3 0 -6 -12 -19 -26 -14 -15 -22 -30
-19 -35 3 -5 1 -9 -3 -9 -19 0 -11 -38 9 -43 15 -4 18 -11 13 -28 -7 -22 -7
-23 16 -7 15 9 24 26 24 42 1 14 11 35 23 46 12 12 22 28 22 36 0 32 -50 58
-65 34z"/>
<path d="M2090 1835 c0 -8 6 -15 14 -15 22 0 28 17 10 24 -22 9 -24 8 -24 -9z"/>
<path d="M1727 1800 c-33 -48 -173 -130 -280 -165 -32 -11 -67 -27 -77 -37
-23 -22 -30 -23 -30 -3 0 8 4 15 10 15 5 0 8 15 6 33 -2 24 -9 33 -26 35 -22
4 -23 1 -17 -44 l5 -48 -35 43 c-34 40 -119 91 -152 91 -9 0 -28 7 -43 14 -16
8 -28 11 -28 7 0 -13 71 -65 143 -105 46 -25 67 -43 67 -56 0 -24 21 -70 32
-70 4 0 8 6 8 14 0 16 146 76 187 76 56 1 157 28 171 47 7 10 27 44 43 75 16
31 33 59 39 63 13 8 13 35 1 35 -6 0 -16 -9 -24 -20z"/>
<path d="M1850 1781 c-8 -6 -18 -7 -22 -5 -4 3 -15 1 -25 -4 -14 -9 -14 -10 7
-17 23 -7 70 11 70 27 0 10 -11 10 -30 -1z"/>
<path d="M1966 1775 c-3 -8 -12 -15 -19 -15 -31 0 -67 -41 -67 -75 0 -47 20
-58 113 -61 86 -3 103 3 118 43 11 30 -8 86 -28 79 -8 -3 -11 -2 -8 4 3 5 -4
8 -15 7 -15 -1 -23 -10 -27 -29 -3 -15 -10 -28 -15 -28 -5 0 -7 8 -3 19 3 10
-1 24 -10 31 -8 7 -15 19 -15 26 0 19 -16 18 -24 -1z"/>
<path d="M1713 1691 c-20 -30 -21 -74 -3 -95 18 -22 24 -21 66 19 20 19 40 35
44 35 4 0 5 11 2 25 -2 15 -11 25 -21 25 -10 0 -21 3 -25 7 -16 16 -47 8 -63
-16z"/>
<path d="M228 1598 c17 -18 41 -44 52 -58 17 -21 21 -23 30 -10 5 8 10 21 10
27 0 18 -79 73 -104 73 -18 0 -17 -3 12 -32z"/>
<path d="M2492 1465 c-90 -91 -102 -107 -96 -129 3 -14 9 -26 13 -26 7 0 7 -7
17 -177 4 -77 2 -145 -5 -187 -10 -56 -9 -69 3 -81 8 -8 18 -15 21 -15 4 0 41
21 81 47 l74 46 0 70 0 70 -32 -7 c-18 -3 -44 -18 -56 -34 -22 -25 -23 -25
-12 -3 7 14 32 46 56 71 l44 47 0 96 0 96 -27 4 -28 4 28 2 27 1 0 105 c0 58
-1 105 -2 104 -2 0 -49 -47 -106 -104z m-2 -134 c-8 -5 -26 -11 -40 -15 -21
-5 -20 -3 5 9 32 15 60 20 35 6z m-6 -336 c-7 -17 -20 -20 -29 -6 -3 5 3 12
12 14 10 3 19 5 20 6 1 0 0 -6 -3 -14z"/>
<path d="M50 1468 c-46 -13 -52 -20 -48 -57 l3 -32 50 50 c52 53 51 55 -5 39z"/>
<path d="M56 1419 c-54 -58 -56 -62 -56 -115 0 -30 4 -54 8 -54 12 0 175 154
206 194 l27 36 -64 0 -65 0 -56 -61z"/>
<path d="M132 1349 c-128 -126 -131 -130 -94 -123 130 22 172 55 212 167 15
43 24 80 20 82 -4 2 -66 -54 -138 -126z"/>
<path d="M468 1444 c-61 -33 -102 -187 -86 -325 16 -141 90 -315 173 -408 30
-34 55 -66 55 -71 0 -5 9 -12 21 -15 11 -4 26 -19 32 -33 6 -15 18 -34 26 -42
13 -13 3 -18 -80 -37 -52 -12 -99 -22 -105 -23 -12 0 -78 62 -113 108 -80 102
-150 255 -171 370 -6 34 -11 116 -11 182 l1 119 -45 -20 c-25 -11 -72 -25
-105 -31 l-60 -10 0 -264 0 -264 25 0 c14 0 42 -7 62 -15 19 -8 57 -15 84 -15
45 0 51 3 69 32 10 17 26 33 34 34 10 1 6 -8 -12 -25 -29 -30 -122 -180 -125
-203 -3 -15 -37 -67 -37 -55 0 5 7 21 15 37 17 33 17 33 -40 30 -76 -4 -75 -1
-74 -183 0 -161 1 -162 16 -112 19 66 30 75 51 49 20 -25 53 -44 77 -44 9 0
70 27 137 60 66 33 125 60 132 60 6 0 19 9 29 20 9 11 24 21 32 21 23 2 26 3
90 33 107 50 687 244 665 223 -5 -6 -237 -95 -333 -129 -33 -11 -174 -78 -315
-148 -281 -140 -357 -170 -430 -170 -38 0 -53 5 -70 23 -12 13 -22 29 -22 35
0 7 -4 12 -10 12 -8 0 -50 -122 -50 -148 0 -6 6 -13 13 -15 9 -4 9 -6 0 -6 -8
-1 -13 -16 -13 -41 l0 -39 855 -1 c764 0 892 3 847 22 -5 1 -5 14 -1 28 l7 25
1 -27 c1 -16 6 -28 12 -28 5 0 7 -5 4 -10 -4 -7 65 -10 199 -10 l205 0 4 42 4
43 1 -42 2 -43 111 0 c85 0 109 3 103 13 -6 9 -4 9 7 -1 9 -8 49 -12 126 -12
l113 0 0 93 c-1 67 -3 87 -11 74 -13 -22 -33 -23 -25 -1 4 10 -12 57 -38 113
-24 53 -47 107 -50 121 -4 14 5 0 19 -29 14 -30 28 -57 30 -60 3 -2 21 11 40
29 34 33 35 37 35 108 l0 73 -51 -28 c-27 -15 -58 -36 -68 -45 -17 -15 -19
-15 -29 6 -6 13 -13 50 -16 82 l-6 59 14 -62 c7 -35 15 -66 19 -69 3 -4 36 11
72 32 l65 38 0 104 c0 57 -3 101 -7 99 -80 -44 -155 -93 -163 -106 -8 -13 -9
-10 -10 12 0 16 4 26 10 22 6 -3 22 2 38 13 15 10 51 32 80 47 l52 28 0 84 c0
86 -7 98 -37 64 -9 -11 -20 -18 -24 -15 -10 6 -117 -62 -145 -91 -11 -12 -35
-51 -54 -86 -122 -238 -355 -422 -636 -504 -111 -33 -214 -45 -375 -45 -153 0
-262 18 -400 66 -153 53 -287 130 -249 142 14 5 116 -15 140 -27 8 -5 33 -7
55 -6 22 1 48 -2 58 -7 12 -6 17 -5 17 6 0 8 8 13 18 12 9 -2 20 2 25 8 4 7
10 8 15 1 9 -13 32 -17 32 -6 0 5 9 7 20 4 14 -4 25 4 40 28 11 19 17 41 14
49 -11 29 -9 35 10 32 24 -4 70 7 62 15 -3 3 3 13 13 22 10 9 24 30 32 46 11
22 20 29 37 27 12 -2 22 2 22 9 0 6 8 9 20 6 11 -3 18 -1 14 4 -3 5 0 9 6 9 6
0 13 -6 16 -14 6 -16 44 -17 44 -1 0 5 19 11 41 12 23 2 47 8 54 13 26 22 131
13 202 -16 56 -23 86 -29 166 -31 73 -2 106 1 128 12 16 9 30 15 31 15 17 1
48 14 48 20 0 5 10 12 21 15 24 8 99 82 99 98 0 5 7 7 15 3 10 -3 15 1 15 13
0 10 7 25 16 32 37 31 52 128 32 207 -12 46 -67 103 -118 121 -25 8 -29 7 -34
-12 -5 -20 -116 -97 -199 -137 -16 -8 -33 -22 -38 -32 -6 -10 -21 -18 -37 -18
-15 0 -38 -9 -52 -20 -14 -11 -33 -20 -44 -20 -14 0 -17 5 -12 25 7 28 -5 33
-24 10 -7 -8 -19 -15 -26 -15 -23 0 -15 34 13 54 25 19 26 19 39 1 8 -10 15
-17 16 -14 2 2 8 13 14 24 6 11 22 21 35 21 88 5 133 18 204 59 42 25 80 45
86 45 18 0 4 24 -22 38 -17 9 -46 11 -95 7 l-72 -6 75 148 c47 94 64 135 47
113 -162 -202 -436 -319 -719 -306 -171 7 -315 48 -457 130 -62 35 -115 61
-118 56 -3 -5 -32 23 -63 63 -124 155 -133 162 -189 131z m201 -194 c0 -9 -6
-4 -14 10 -19 33 -19 49 0 24 8 -10 14 -26 14 -34z m-118 -44 c12 -26 -2 -66
-24 -66 -16 0 -57 29 -57 40 0 14 42 50 57 50 7 0 18 -11 24 -24z m1254 -155
c-3 -6 -11 -11 -17 -11 -6 0 -6 6 2 15 14 17 26 13 15 -4z m-45 -66 c-7 -8
-17 -15 -22 -15 -6 0 -5 7 2 15 7 8 17 15 22 15 6 0 5 -7 -2 -15z m740 -169
c0 -2 -8 -10 -17 -17 -16 -13 -17 -12 -4 4 13 16 21 21 21 13z m-60 -60 c0 -3
-4 -8 -10 -11 -5 -3 -10 -1 -10 4 0 6 5 11 10 11 6 0 10 -2 10 -4z m-732 -38
c7 -7 12 -25 12 -41 0 -26 -3 -28 -32 -25 -30 3 -33 6 -36 41 -3 33 -1 37 20
37 13 0 29 -5 36 -12z m-488 -28 c-8 -6 -22 -10 -30 -9 -9 0 -5 6 10 14 27 14
44 10 20 -5z m-1020 -174 c0 -2 -12 -11 -27 -20 l-28 -17 24 20 c23 21 31 25
31 17z m891 -90 c5 3 9 0 9 -6 0 -15 -23 -7 -26 8 -1 7 0 8 3 2 2 -5 9 -8 14
-4z m-996 -27 c-5 -16 -4 -19 5 -14 9 6 11 4 5 -4 -10 -18 -27 2 -19 22 9 25
17 21 9 -4z m2078 -271 l22 -17 -22 6 c-18 4 -23 1 -24 -13 -1 -11 -5 6 -8 37
-3 31 -4 80 -1 110 5 50 5 48 8 -26 2 -69 6 -82 25 -97z m102 -59 c36 -22 65
-43 65 -46 0 -3 -12 3 -27 13 -16 10 -47 29 -70 42 -39 22 -51 32 -38 32 3 0
35 -18 70 -41z m-295 27 c0 -2 -18 -15 -39 -29 -27 -18 -41 -22 -44 -14 -2 7
14 19 37 28 23 10 42 17 44 18 1 1 2 -1 2 -3z m-1750 -26 c0 -5 -5 -10 -11
-10 -5 0 -7 5 -4 10 3 6 8 10 11 10 2 0 4 -4 4 -10z"/>
<path d="M2146 1419 c-33 -16 -66 -29 -73 -29 -7 0 -13 -4 -13 -10 0 -5 2 -10
5 -10 6 0 147 69 153 75 12 12 -18 2 -72 -26z"/>
<path d="M1545 1430 c-8 -13 11 -47 35 -60 26 -14 46 20 30 50 -11 21 -54 28
-65 10z"/>
<path d="M704 1335 c26 -19 42 -19 26 0 -7 8 -20 15 -29 15 -13 -1 -13 -3 3
-15z"/>
<path d="M2570 1115 l-23 -25 26 0 c22 0 27 5 27 25 0 14 -1 25 -3 25 -2 0
-14 -11 -27 -25z"/>
<path d="M2396 844 c-4 -9 -4 -19 -2 -21 8 -8 26 8 26 23 0 19 -16 18 -24 -2z"/>
<path d="M40 626 c-34 -12 -35 -15 -35 -62 l0 -49 64 1 c71 1 67 -2 119 86
l23 38 -68 -1 c-37 0 -84 -6 -103 -13z"/>
<path d="M1150 405 c-6 -8 -10 -19 -8 -24 1 -5 11 2 21 15 19 26 8 34 -13 9z"/>
<path d="M2568 333 c-28 -34 -30 -44 -11 -88 28 -69 43 -58 43 30 0 77 -6 88
-32 58z"/>
<path d="M959 313 c-13 -16 -12 -17 4 -4 9 7 17 15 17 17 0 8 -8 3 -21 -13z"/>
</g>
</svg>
