<?xml version="1.0" standalone="no"?>
<!DOCTYPE svg PUBLIC "-//W3C//DTD SVG 20010904//EN"
 "http://www.w3.org/TR/2001/REC-SVG-20010904/DTD/svg10.dtd">
<svg version="1.0" xmlns="http://www.w3.org/2000/svg"
 width="512.000000pt" height="512.000000pt" viewBox="0 0 512.000000 512.000000"
 preserveAspectRatio="xMidYMid meet">
<metadata>
Created by potrace 1.11, written by Peter Selinger 2001-2013
</metadata>
<g transform="translate(0.000000,512.000000) scale(0.100000,-0.100000)"
fill="#000000" stroke="none">
<path d="M2378 5115 c-1 -1 -35 -6 -73 -9 -39 -4 -80 -8 -92 -10 -19 -4 -35
-7 -128 -22 -22 -3 -43 -8 -46 -10 -3 -2 -21 -6 -40 -9 -51 -9 -104 -23 -209
-56 -442 -141 -835 -395 -1134 -733 -33 -38 -68 -77 -77 -86 -24 -25 -160
-217 -199 -280 -97 -158 -226 -441 -260 -570 -6 -25 -18 -65 -26 -90 -19 -56
-49 -198 -71 -338 -11 -75 -17 -173 -17 -327 -1 -230 10 -346 45 -515 7 -30
13 -62 14 -70 1 -8 7 -35 14 -60 173 -647 545 -1163 1097 -1523 92 -60 279
-160 379 -202 22 -9 49 -21 60 -26 68 -30 309 -102 415 -123 228 -46 309 -53
565 -51 132 2 249 5 260 8 11 3 43 8 70 11 28 4 82 14 120 22 39 8 79 16 90
18 11 2 30 6 42 10 12 4 30 9 40 11 177 39 451 155 654 275 106 63 241 157
247 172 2 4 10 8 17 8 7 0 15 3 17 8 2 4 30 29 63 57 182 152 388 389 515 594
54 88 145 260 175 331 10 25 26 63 36 85 68 160 138 439 166 660 9 77 10 483
1 555 -4 30 -10 78 -14 105 -3 28 -9 64 -14 80 -5 17 -12 48 -16 70 -4 22 -8
45 -10 50 -1 6 -5 24 -8 41 -3 17 -12 49 -20 72 -9 23 -15 43 -14 45 2 6 -34
113 -67 197 -144 375 -414 757 -710 1005 -33 28 -62 52 -65 55 -14 16 -135
103 -210 152 -191 124 -380 215 -585 283 -103 34 -205 63 -245 70 -19 3 -54
10 -77 16 -120 26 -276 41 -465 44 -113 2 -208 2 -210 0z"/>
</g>
</svg>
